<svg data-name="Battle.net" width="500" height="500" fill="#148EFF" xmlns="http://www.w3.org/2000/svg">
    <path d="M416.694 64.58c0-1.21 0-3.896 1.315-3.896 1.868 0 3.473 3.95 4.078 5.634 10.13 32.278 7.288 71.901-7.183 116.5 57.41 30.698 90.378 70.505 84.405 107.732-7.893 48.917-79.669 77.693-176.282 74.323 9.42-10.11 22.286-24.985 32.284-38.043 37.203-7.24 63.882-21.958 70.854-45.547 5.105-17.139-6.683-36.174-29.099-54.077-36.835 77.614-98.376 147.145-155.234 187.321 27.574 35.174 53.253 59.579 82.59 73.296 1.079.527 3.42 1.869 2.631 3.08-.921 1.633-5.262 1.053-6.894.711-33.019-7.345-65.776-29.618-97.349-64.476-55.253 34.41-106.217 43.072-135.448 19.272-38.387-31.251-27.415-107.944 23.68-189.822 4.025 13.163 10.524 31.803 16.786 46.968-12.366 35.885-12.945 66.346 3.973 84.248 12.287 12.98 34.651 12.295 61.357 1.817-48.438-70.769-77.88-158.861-84.195-228.339-44.228 6.318-78.195 16.349-104.716 34.91-1 .685-3.342 2.054-4.052.843-.921-1.633 1.71-5.003 2.841-6.345 22.89-24.933 58.594-42.282 104.428-52.024-2.132-65.134 15.786-113.603 51.042-127.03 46.255-17.64 107.085 30.197 152.418 115.525-13.444-3.107-32.756-6.819-49.043-8.925-24.863-28.618-50.964-44.415-74.88-38.649-17.365 4.16-27.942 23.879-32.231 52.155 85.589-6.924 176.519 11.663 239.796 40.94 16.655-41.361 24.943-75.824 22.128-108.102zM216.732 378.484c67.75-38.754 122.687-97.912 159.127-166.048-67.487-39.175-146.103-57.341-223.246-54.761-.158 78.061 23.416 155.333 64.198 220.836l-.079-.027z"/>
</svg>