<svg data-name="Epic Games" width="500" height="500" fill="white" xmlns="http://www.w3.org/2000/svg">
    <path d="M229.674 151.618v-48.204c0-7.665-3.541-11.225-10.901-11.225h-11.992v70.66h11.992c7.36 0 10.901-3.56 10.901-11.231zm-38.502 171.865l-6.549 16.491h13.014l-6.465-16.491zM426.317 0H73.691C45.112 0 34.56 10.546 34.56 39.143v345.038c0 3.236.133 6.244.419 9.029.653 6.244.774 12.291 6.58 19.175.564.673 6.49 5.083 6.49 5.083 3.186 1.561 5.369 2.716 8.96 4.162l173.636 72.748c9.016 4.13 12.785 5.742 19.327 5.615H250.023c6.548.127 10.317-1.478 19.334-5.615l173.635-72.748c3.598-1.446 5.774-2.595 8.96-4.162 0 0 5.926-4.41 6.491-5.083 5.806-6.884 5.926-12.937 6.58-19.175.285-2.785.419-5.793.419-9.029V39.143C465.448 10.546 454.896 0 426.317 0zM271.99 66.447h29.169v191.706H271.99V66.447zm1.973 238.388h16.986v58.007h-15.996V329.53l-14.835 22.709h-.33l-14.752-22.538v33.148h-15.749v-58.008h16.986l13.839 22.456 13.851-22.462zM177.618 66.447h45.787c23.712 0 35.431 11.776 35.431 35.602v50.939c0 23.827-11.719 35.597-35.431 35.597h-16.624v69.562h-29.163v-191.7zm-79.486 0H163v26.56h-35.711v54.226h34.34v26.561h-34.34v57.792h36.25v26.561H98.132v-191.7zm55.749 288.61c-6.136 5.057-14.67 8.953-25.19 8.953-18.065 0-31.574-12.43-31.574-30v-.165c0-16.904 13.261-30.165 31.244-30.165 10.19 0 17.404 3.147 23.534 8.452l-9.448 11.351c-4.143-3.483-8.287-5.469-14.004-5.469-8.369 0-14.835 7.043-14.835 15.913v.165c0 9.366 6.548 16.079 15.749 16.079 3.896 0 6.878-.831 9.283-2.405v-7.043h-11.434v-11.77h26.688v26.104h-.013zm29.67-50.635h15.495l24.695 58.427h-17.24l-4.225-10.362h-22.374l-4.143 10.362h-16.903l24.695-58.427zm65.108 155.171l-81.732-28.096h166.941l-85.209 28.096zm99.974-96.744h-47.068v-58.008h46.656v13.674h-30.749v8.782h27.843v12.677h-27.843v9.201h31.161v13.674zm-32.062-138.655V100.406c0-23.833 11.726-35.603 35.432-35.603h14.175c23.705 0 35.152 11.504 35.152 35.33v39.169h-28.617v-37.525c0-7.672-3.547-11.225-10.901-11.225h-4.905c-7.633 0-11.173 3.56-11.173 11.225V222.83c0 7.671 3.546 11.224 11.173 11.224h5.457c7.354 0 10.901-3.559 10.901-11.224v-43.274h28.617v44.638c0 23.832-11.72 35.603-35.432 35.603h-14.447c-23.712 0-35.432-11.777-35.432-35.603zm86.84 120.748c0 11.853-9.365 18.896-23.452 18.896-10.272 0-20.057-3.229-27.182-9.613l8.953-10.691c5.717 4.556 12.1 6.961 18.813 6.961 4.308 0 6.631-1.492 6.631-3.979v-.165c0-2.405-1.904-3.731-9.778-5.552-12.348-2.817-21.878-6.301-21.878-18.23v-.165c0-10.774 8.534-18.566 22.455-18.566 9.861 0 17.57 2.653 23.864 7.71l-8.039 11.351c-5.304-3.731-11.104-5.717-16.243-5.717-3.896 0-5.8 1.656-5.8 3.731v.165c0 2.653 1.992 3.814 10.025 5.635 13.344 2.9 21.631 7.208 21.631 18.065v.164z"/>
</svg>