<svg data-name="Facebook" width="500" height="500" fill="none" xmlns="http://www.w3.org/2000/svg">
    <path d="M208.75 497.5C90 476.25 0 373.75 0 250 0 112.5 112.5 0 250 0s250 112.5 250 250c0 123.75-90 226.25-208.75 247.5l-13.75-11.25h-55l-13.75 11.25z" fill="url(#paint0_linear_4_97)"/>
    <path d="M347.5 320l11.25-70H292.5v-48.75c0-20 7.5-35 37.5-35h32.5V102.5c-17.5-2.5-37.5-5-55-5-57.5 0-97.5 35-97.5 97.5v55h-62.5v70H210v176.25c13.75 2.5 27.5 3.75 41.25 3.75s27.5-1.25 41.25-3.75V320h55z" fill="white"/>
    <defs>
        <linearGradient id="paint0_linear_4_97" x1="250.012" y1="482.612" x2="250.012" y2="-.092" gradientUnits="userSpaceOnUse">
            <stop stop-color="#0062E0"/>
            <stop offset="1" stop-color="#19AFFF"/>
        </linearGradient>
    </defs>
</svg>