<svg data-name="GitHub" width="500" height="500" fill="white" xmlns="http://www.w3.org/2000/svg">
    <path fill-rule="evenodd" clip-rule="evenodd" d="M250 6.165c-138.125 0-250 111.875-250 250C0 366.79 71.563 460.228 170.937 493.353c12.5 2.187 17.188-5.313 17.188-11.875 0-5.938-.312-25.625-.312-46.563C125 446.478 108.75 419.602 103.75 405.54c-2.813-7.188-15-29.375-25.625-35.313-8.75-4.687-21.25-16.25-.313-16.562 19.688-.313 33.751 18.125 38.438 25.625 22.5 37.812 58.438 27.188 72.813 20.625 2.187-16.25 8.749-27.188 15.937-33.438-55.625-6.25-113.75-27.812-113.75-123.437 0-27.188 9.688-49.688 25.625-67.188-2.5-6.25-11.25-31.875 2.5-66.25 0 0 20.938-6.562 68.75 25.626 20-5.625 41.25-8.438 62.5-8.438s42.5 2.813 62.5 8.438c47.813-32.5 68.75-25.626 68.75-25.626 13.75 34.375 5 60 2.5 66.25C400.313 193.352 410 215.54 410 243.04c0 95.937-58.437 117.187-114.062 123.437 9.062 7.813 16.875 22.813 16.875 46.251 0 33.437-.313 60.312-.313 68.75 0 6.562 4.688 14.375 17.188 11.875A250.41 250.41 0 00500 256.165c0-138.125-111.875-250-250-250z"/>
</svg>