<svg data-name="PlayStation Network" width="500" height="500" fill="#0070D1" xmlns="http://www.w3.org/2000/svg">
    <path d="M10.12 338.7c-18.74 12.493-12.493 36.229 27.484 47.473 41.226 13.742 86.199 17.489 129.924 9.994 2.498 0 4.997-1.25 6.246-1.25v-42.475l-42.475 13.742c-16.24 4.997-32.481 6.247-48.722 2.499-12.492-3.748-9.994-11.244 4.998-17.49l86.199-29.983v-46.223l-119.93 41.226C38.853 321.21 23.862 328.706 10.12 338.7zM299.95 151.31v121.179c51.22 24.985 91.196 0 91.196-64.962 0-66.212-23.736-96.194-92.446-119.93-36.228-12.493-73.707-23.736-111.185-31.232v361.039l87.449 26.235V140.066c0-13.742 0-23.736 9.994-19.988 13.742 3.748 14.992 17.49 14.992 31.232zm162.405 158.657c-36.229-12.493-74.956-17.49-112.434-13.742-19.989 1.249-38.728 6.246-56.218 12.493l-3.747 1.249v48.722l81.202-29.983c16.241-4.997 32.481-6.246 48.722-2.498 12.492 3.747 9.994 11.243-4.997 17.489L289.957 389.92v47.473l172.399-63.713c12.493-4.997 23.736-11.244 33.73-21.238 8.745-12.492 4.997-29.982-33.73-42.475z"/>
</svg>