<svg data-name="Reddit" width="500" height="500" fill="none" xmlns="http://www.w3.org/2000/svg">
    <path d="M250 500c138.071 0 250-111.929 250-250S388.071 0 250 0 0 111.929 0 250s111.929 250 250 250z" fill="#FF4500"/>
    <path d="M416.75 250a36.505 36.505 0 00-22.778-32.499A36.503 36.503 0 00355 225a177.999 177.999 0 00-96.25-30.75l16.25-78 53.5 11.25a24.998 24.998 0 0023.572 22.293 25.009 25.009 0 0016.508-5.136 25.003 25.003 0 006.762-31.732 24.996 24.996 0 00-30.265-11.688 24.997 24.997 0 00-13.327 11.013L270.5 100a7.75 7.75 0 00-9.25 6l-18.5 86.75a178.502 178.502 0 00-97.5 30.75 36.494 36.494 0 00-29.074-9.69 36.497 36.497 0 00-31.974 30.473A36.499 36.499 0 00105 283.25a71.619 71.619 0 000 11c0 56 65.25 101.5 145.75 101.5s145.75-45.5 145.75-101.5a71.873 71.873 0 000-11A36.496 36.496 0 00416.75 250zm-250 25a24.998 24.998 0 0129.877-24.52 25.008 25.008 0 0112.801 6.842 25.006 25.006 0 01-3.789 38.465A25 25 0 01166.75 275zM312 343.75A96.005 96.005 0 01250.25 363a96.005 96.005 0 01-61.75-19.25 6.75 6.75 0 019.5-9.5A81.75 81.75 0 00250 350a82 82 0 0052.25-15.25 6.984 6.984 0 119.75 10v-1zM307.5 301a24.998 24.998 0 01-24.52-29.877 25.008 25.008 0 016.842-12.801 25.006 25.006 0 0138.465 3.789A24.998 24.998 0 01332.5 276a24.998 24.998 0 01-25.25 26l.25-1z" fill="white"/>
</svg>