<svg data-name="Spotify" width="500" height="500" fill="none" xmlns="http://www.w3.org/2000/svg">
    <path d="M0 249.257c0 136.905 113.095 250 250 250s250-113.095 250-250S386.905.745 250 .745 0 112.352 0 249.257zm342.262 116.071c-58.036-35.714-132.441-44.643-218.75-25.297-20.833 2.976-23.81-26.786-5.952-29.762 95.238-22.322 175.595-11.905 241.071 28.274 16.369 10.416 0 35.714-16.369 26.785zm25.298-66.964c-66.965-41.667-169.643-53.571-248.512-29.762-25.298 7.441-34.227-31.25-10.417-37.202 90.774-26.786 202.381-13.393 279.762 34.226 20.833 13.393 0 46.131-20.833 32.738zM107.143 192.709c-25.298 8.929-41.667-34.226-13.393-44.643 87.798-26.785 236.607-22.321 328.869 32.739 25.298 13.392 1.488 55.059-25.298 40.178-80.357-47.619-214.285-52.083-290.178-28.274z" fill="#1ED760"/>
</svg>