<svg data-name="Steam" width="500" height="500" fill="white" xmlns="http://www.w3.org/2000/svg">
    <path d="M249.568 0C118.24 0 10.654 101.263.43 229.952l133.996 55.401c11.354-7.765 25.07-12.315 39.826-12.315 1.322 0 2.639.045 3.944.119l59.589-86.371c0-.413-.006-.814-.006-1.221 0-51.988 42.29-94.283 94.283-94.283 51.988 0 94.278 42.295 94.278 94.283s-42.29 94.289-94.278 94.289c-.717 0-1.429-.017-2.141-.034l-84.987 60.64a82.18 82.18 0 01.085 3.345c0 39.029-31.744 70.768-70.767 70.768-34.254 0-62.895-24.448-69.383-56.825L9.043 318.131C38.713 423.067 135.121 500 249.568 500c138.076 0 250.003-111.932 250.003-249.992C499.571 111.927 387.639 0 249.568 0z"/>
    <path d="M157.095 379.34l-30.711-12.688c5.442 11.331 14.858 20.821 27.36 26.032 27.026 11.258 58.184-1.566 69.448-28.615 5.454-13.078 5.487-27.518.079-40.63-5.398-13.118-15.582-23.347-28.677-28.807-12.993-5.408-26.913-5.211-39.144-.593l31.723 13.117c19.934 8.308 29.361 31.198 21.053 51.131-8.291 19.94-31.197 29.367-51.131 21.053zM394.884 185.568c0-34.639-28.18-62.824-62.824-62.824-34.64 0-62.825 28.185-62.825 62.824 0 34.645 28.185 62.818 62.825 62.818 34.644-.005 62.824-28.179 62.824-62.818zm-109.914-.108c0-26.065 21.131-47.191 47.197-47.191 26.066 0 47.197 21.126 47.197 47.191 0 26.066-21.131 47.192-47.197 47.192-26.066 0-47.197-21.132-47.197-47.192z"/>
</svg>