<svg data-name="Twitter" width="500" height="500" fill="#29A0EC" xmlns="http://www.w3.org/2000/svg">
    <path d="M500 94.93c-18.387 8.148-38.14 13.653-58.905 16.141 21.184-12.684 37.435-32.81 45.098-56.769-19.818 11.759-41.773 20.303-65.137 24.883-18.717-19.906-45.362-32.37-74.87-32.37-56.637 0-102.572 45.935-102.572 102.616 0 8.016.925 15.811 2.643 23.342-85.286-4.294-160.839-45.142-211.442-107.196-8.809 15.194-13.873 32.81-13.873 51.572 0 35.585 18.123 67.009 45.626 85.396-16.823-.551-32.634-5.153-46.463-12.838v1.321c0 49.701 35.343 91.165 82.291 100.59a103.34 103.34 0 01-27.02 3.567c-6.606 0-13.058-.616-19.312-1.805 13.059 40.738 50.934 70.422 95.834 71.214-35.123 27.526-79.362 43.932-127.411 43.932-8.28 0-16.45-.485-24.487-1.432 45.407 29.134 99.313 46.089 157.227 46.089 188.717 0 291.883-156.302 291.883-291.861 0-4.404-.11-8.852-.308-13.256 20.039-14.49 37.435-32.525 51.154-53.07l.044-.066z"/>
</svg>