<svg data-name="Xbox" width="500" height="500" fill="#1D7D23" xmlns="http://www.w3.org/2000/svg">
    <path d="M225.081 498.972c-38.494-3.687-77.466-17.511-110.944-39.354-28.054-18.303-34.39-25.827-34.39-40.843 0-30.163 33.164-82.991 89.906-143.215 32.225-34.203 77.112-74.294 81.967-73.209 9.435 2.11 84.883 75.704 113.128 110.348 44.663 54.783 65.196 99.639 54.765 119.637-7.93 15.202-57.133 44.913-93.281 56.328-29.793 9.407-68.92 13.395-101.151 10.308zM41.857 387.415C18.545 351.65 6.767 316.441 1.08 265.516c-1.877-16.815-1.205-26.433 4.264-60.948 6.816-43.017 31.313-92.782 60.75-123.409C78.63 68.115 79.75 67.797 95.032 72.946c18.558 6.251 38.376 19.939 69.112 47.731l17.933 16.215-9.793 12.03c-45.457 55.845-93.444 135.004-111.53 183.977-9.83 26.624-13.796 53.349-9.566 64.475 2.856 7.512.233 4.712-9.33-9.959zm409.203 6.082c2.303-11.242-.61-31.889-7.437-52.714-14.784-45.1-64.202-129.001-109.579-186.045l-14.285-17.958 15.454-14.19c20.179-18.529 34.189-29.624 49.306-39.046 11.929-7.435 28.976-14.016 36.303-14.016 4.518 0 20.422 16.505 33.261 34.517 19.885 27.898 34.514 61.716 41.926 96.92 4.788 22.747 5.187 71.438.771 94.129-3.624 18.621-11.277 42.776-18.743 59.159-5.594 12.274-19.506 36.114-25.603 43.871-3.135 3.988-3.137 3.98-1.374-4.627zM229.202 61.011c-20.937-10.632-53.237-22.045-71.08-25.116-6.255-1.076-16.925-1.677-23.712-1.334-14.721.743-14.064-.026 9.553-11.184 19.634-9.276 36.011-14.73 58.244-19.4 25.01-5.25 72.02-5.312 96.632-.126 26.583 5.602 57.885 17.25 75.524 28.105l5.242 3.226-12.028-.607c-23.901-1.207-58.734 8.45-96.132 26.65-11.28 5.489-21.094 9.873-21.808 9.742-.714-.13-9.91-4.61-20.435-9.956z"/>
</svg>