<svg data-name="YouTube" width="500" height="500" fill="none" xmlns="http://www.w3.org/2000/svg">
    <path d="M489.58 129.655c-5.727-21.476-22.669-38.418-44.225-44.225C406.379 75.01 250 75.01 250 75.01s-156.3 0-195.355 10.42c-21.476 5.727-38.419 22.669-44.225 44.225C0 168.631 0 250.002 0 250.002s0 81.371 10.42 120.347c5.727 21.476 22.67 38.419 44.225 44.225C93.7 424.994 250 424.994 250 424.994s156.379 0 195.355-10.42c21.476-5.727 38.418-22.669 44.225-44.225C500 331.373 500 250.002 500 250.002s0-81.371-10.42-120.347z" fill="red"/>
    <path d="M200.048 325.01l129.892-75.008-129.892-75.008V325.01z" fill="white"/>
</svg>