<svg width="182" height="56" fill="none" xmlns="http://www.w3.org/2000/svg">
    <rect width="181.69" height="56" rx="28" fill="#fff"/>
    <path d="M49.662 26.708l-1.41-1.414-3.285 3.293V18.001h-1.994v10.586l-3.285-3.293-1.41 1.414 5.692 5.707 5.692-5.707zM49.954 34.001v2H37.986v-2h-1.995v2a2 2 0 001.995 2h11.968a2 2 0 001.995-2v-2h-1.995zM76.837 28.58c0-4.04-2.46-6.88-7.26-6.88h-4v13.8h3.92c4.74 0 7.34-2.82 7.34-6.92zm-1.94.02c0 3.52-2 5.2-5.32 5.2h-2.12V23.4h2.18c3.16 0 5.26 1.74 5.26 5.2zm12.762 2.14c0-3.14-1.88-4.98-4.44-4.98-2.54 0-4.38 1.84-4.38 4.98 0 3.14 1.84 4.96 4.38 4.96 2.56 0 4.44-1.82 4.44-4.96zm-1.8 0c0 2-.88 3.48-2.64 3.48-1.68 0-2.58-1.52-2.58-3.48 0-2 .86-3.48 2.58-3.48 1.72 0 2.64 1.52 2.64 3.48zm16.235-4.78h-1.74l-2.04 6.92-2.12-6.92h-1.5l-2.12 6.92-2.1-7.06-1.7.28 3.08 9.4h1.38l2.18-7.22 2.2 7.22h1.4l3.08-9.54zm9.733 9.54v-6.94c0-1.72-.96-2.8-2.76-2.8-1.36 0-2.48.76-3.38 1.58l-.22-1.38h-1.42v9.54h1.78v-6.6c.86-.92 1.82-1.54 2.76-1.54 1.04 0 1.46.66 1.46 1.64v6.5h1.78zm4.687 0V21.06l-1.78.28V35.5h1.78zm11.223-4.76c0-3.14-1.88-4.98-4.44-4.98-2.54 0-4.38 1.84-4.38 4.98 0 3.14 1.84 4.96 4.38 4.96 2.56 0 4.44-1.82 4.44-4.96zm-1.8 0c0 2-.88 3.48-2.64 3.48-1.68 0-2.58-1.52-2.58-3.48 0-2 .86-3.48 2.58-3.48 1.72 0 2.64 1.52 2.64 3.48zm11.287 4.76v-6.68c0-2.12-1.12-3.06-3.44-3.06-1.48 0-2.56.34-3.7.8l.24 1.54c1.04-.46 2.14-.82 3.3-.82 1.1 0 1.82.42 1.82 1.62v.4c-3.98.42-6.02 1.36-6.02 3.74 0 1.62 1.08 2.66 2.8 2.66 1.56 0 2.6-.7 3.36-1.48l.2 1.28h1.44zm-1.78-2.62c-.8.82-1.8 1.34-2.84 1.34-.9 0-1.42-.5-1.42-1.28 0-.98.74-1.94 4.26-2.28v2.22zm12.501 2.62V21.06l-1.78.28v4.92c-.6-.24-1.46-.42-2.4-.42-2.32 0-4.32 1.68-4.32 5.16 0 3.2 1.7 4.7 3.76 4.7 1.4 0 2.38-.72 3.1-1.58l.22 1.38h1.42zm-1.78-3.06c-.76 1.02-1.6 1.68-2.7 1.68-1.28 0-2.22-1.1-2.22-3.2 0-2.36 1.08-3.58 2.58-3.58 1.02 0 1.6.16 2.34.54v4.56z" fill="#23272A"/>
</svg>
